<svg width="179" height="210" viewBox="0 0 179 210" fill="none" xmlns="http://www.w3.org/2000/svg">
<path d="M112.322 210H262.155V0.00117493H112.322V210Z" fill="#EAE3E1"/>
<path d="M159.614 191.089H145.073V184.161H159.614V191.089Z" fill="#DACCC9"/>
<path d="M159.925 68.9272H145.383V61.9998H159.925V68.9272Z" fill="#DACCC9"/>
<path d="M117.896 172.7H146.15V138.522H117.896V172.7Z" fill="#C3DFF4"/>
<path d="M146.15 147.306V139.634L146.154 139.628V147.3L146.15 147.306Z" fill="#F6F4F3"/>
<path d="M132.024 172.047H127.681L144.929 141.795L146.151 139.635V147.307L144.929 149.467L132.024 172.047Z" fill="#E9F1F6"/>
<path d="M124.357 172.047H122.186L140.942 139.132H143.112L124.357 172.047Z" fill="#E9F1F6"/>
<path d="M118.508 173.389H117.284V137.908H118.508V173.389Z" fill="white"/>
<path d="M132.676 173.114H130.759V138.186H132.676V173.114Z" fill="white"/>
<path d="M146.154 137.867V139.091L117.284 139.131V137.908L146.154 137.867Z" fill="white"/>
<path d="M146.154 172.047V173.271L117.284 173.312V172.088L146.154 172.047Z" fill="white"/>
<path d="M146.15 173.114H144.927V138.186H146.15V173.114Z" fill="#EEF1F4"/>
<path d="M146.154 137.869V173.347H144.929V137.869H146.154Z" fill="white"/>
<path d="M146.15 154.647V156.65H117.284V154.647H146.15Z" fill="white"/>
<path d="M125.164 104.661H248.245V81.136H125.164V104.661ZM248.549 104.965H124.861V80.8325H248.549V104.965Z" fill="#3E3121"/>
<path d="M128.1 106.112H247.596V82.283H128.1V106.112Z" fill="#3E3121"/>
<path d="M124.212 106.112H243.708V82.283H124.212V106.112Z" fill="#6C94D4"/>
<path d="M163.917 95.0369C164.069 96.093 164.474 96.9116 165.122 97.4723C165.804 98.0593 166.801 98.3571 168.086 98.3571C168.973 98.3571 169.723 98.2317 170.316 97.9844C170.896 97.7424 171.35 97.3679 171.666 96.8707C171.983 96.3728 172.144 95.8307 172.144 95.2591C172.144 94.6253 172.011 94.0887 171.748 93.664C171.485 93.2381 171.113 92.8969 170.644 92.6505C170.161 92.397 169.402 92.1466 168.388 91.9062C167.321 91.6542 166.663 91.4144 166.375 91.1728C166.13 90.9673 166.006 90.7133 166.006 90.4176C166.006 90.0959 166.14 89.8348 166.405 89.6427C166.779 89.3707 167.297 89.2329 167.943 89.2329C168.573 89.2329 169.056 89.3637 169.382 89.6214C169.684 89.86 169.89 90.2385 169.997 90.7485L171.835 90.6677C171.773 89.8172 171.441 89.1254 170.845 88.61C170.21 88.0588 169.24 87.7792 167.965 87.7792C167.183 87.7792 166.506 87.8979 165.954 88.1325C165.405 88.3675 164.998 88.6977 164.709 89.1418C164.424 89.5804 164.279 90.0582 164.279 90.5612C164.279 91.3446 164.588 92.0185 165.197 92.5646C165.636 92.9571 166.421 93.2955 167.528 93.5702C168.426 93.793 168.986 93.9439 169.24 94.0319C169.637 94.1746 169.909 94.3391 170.072 94.5355C170.24 94.7376 170.325 94.9832 170.325 95.2658C170.325 95.6978 170.132 96.0784 169.752 96.3971C169.378 96.7089 168.825 96.867 168.108 96.867C167.428 96.867 166.878 96.691 166.471 96.3431C166.091 96.0183 165.829 95.5217 165.69 94.8648L163.917 95.0369ZM168.086 98.6606C166.726 98.6606 165.662 98.3383 164.924 97.7021C164.185 97.0628 163.738 96.127 163.596 94.9189L163.578 94.7653L165.936 94.5358L165.961 94.6733C166.08 95.328 166.318 95.8125 166.668 96.1124C167.018 96.4114 167.502 96.5635 168.108 96.5635C168.752 96.5635 169.24 96.429 169.557 96.1646C169.869 95.9026 170.021 95.6085 170.021 95.2658C170.021 95.0533 169.961 94.8779 169.838 94.7291C169.712 94.578 169.477 94.4396 169.139 94.3182C168.899 94.235 168.331 94.0826 167.455 93.865C166.282 93.5742 165.478 93.2227 164.994 92.7907C164.318 92.1848 163.975 91.4345 163.975 90.5612C163.975 89.9981 164.137 89.4654 164.455 88.9764C164.773 88.4871 165.237 88.1095 165.835 87.8533C166.425 87.6028 167.142 87.4756 167.965 87.4756C169.316 87.4756 170.352 87.7801 171.044 88.3805C171.74 88.9837 172.111 89.7999 172.147 90.807L172.152 90.9576L169.746 91.0633L169.723 90.9315C169.638 90.4307 169.46 90.07 169.194 89.8591C168.923 89.6451 168.503 89.5364 167.943 89.5364C167.362 89.5364 166.905 89.6548 166.583 89.8879C166.399 90.0221 166.309 90.1951 166.309 90.4176C166.309 90.6219 166.394 90.7928 166.57 90.94C166.818 91.1482 167.453 91.3738 168.458 91.6108C169.497 91.8567 170.28 92.1162 170.785 92.3818C171.303 92.6538 171.713 93.0317 172.006 93.504C172.299 93.9776 172.448 94.568 172.448 95.2591C172.448 95.8899 172.271 96.4864 171.922 97.0337C171.572 97.584 171.071 97.9983 170.433 98.2645C169.803 98.5277 169.013 98.6606 168.086 98.6606Z" fill="#3E3121"/>
<path d="M180.525 98.1706H182.343V87.9587H180.525V92.0976H176.06V87.9587H174.241V98.1706H176.06V93.5728H180.525V98.1706ZM182.647 98.4741H180.222V93.8763H176.364V98.4741H173.937V87.6552H176.364V91.794H180.222V87.6552H182.647V98.4741Z" fill="#3E3121"/>
<path d="M163.203 95.4007L165.268 95.1994C165.394 95.8927 165.645 96.4018 166.026 96.7272C166.406 97.0517 166.919 97.2144 167.564 97.2144C168.247 97.2144 168.763 97.0702 169.11 96.7806C169.456 96.491 169.63 96.1535 169.63 95.7649C169.63 95.5178 169.556 95.3066 169.411 95.1317C169.265 94.9563 169.011 94.8054 168.647 94.6749C168.399 94.5893 167.831 94.4363 166.948 94.2169C165.809 93.9346 165.011 93.5876 164.552 93.1769C163.906 92.5984 163.583 91.8926 163.583 91.0606C163.583 90.5255 163.735 90.0243 164.038 89.5587C164.342 89.0912 164.779 88.737 165.351 88.4923C165.922 88.2498 166.613 88.1269 167.421 88.1269C168.74 88.1269 169.734 88.4164 170.401 88.9947C171.069 89.5732 171.417 90.3467 171.452 91.3119L169.329 91.4051C169.237 90.8651 169.043 90.4769 168.744 90.2398C168.445 90.0031 167.996 89.8841 167.4 89.8841C166.783 89.8841 166.299 90.0119 165.95 90.2647C165.726 90.4274 165.614 90.6451 165.614 90.917C165.614 91.1659 165.718 91.379 165.929 91.556C166.197 91.7809 166.847 92.0146 167.88 92.2578C168.912 92.5027 169.676 92.7556 170.171 93.0157C170.666 93.2756 171.053 93.6313 171.333 94.0836C171.613 94.5359 171.752 95.0944 171.752 95.7586C171.752 96.3617 171.586 96.9257 171.251 97.4514C170.916 97.9778 170.442 98.3684 169.831 98.6237C169.219 98.879 168.456 99.0083 167.542 99.0083C166.213 99.0083 165.193 98.7014 164.479 98.0861C163.768 97.4712 163.342 96.5772 163.203 95.4007Z" fill="white"/>
<path d="M173.545 98.8203V88.3049H175.669V92.4441H179.83V88.3049H181.952V98.8203H179.83V94.2228H175.669V98.8203H173.545Z" fill="white"/>
<path d="M155.727 209.61H202.262V141.175H155.727V209.61Z" fill="#6C94D4"/>
<path d="M177.892 209.61H180.648V139.629H177.892V209.61Z" fill="white"/>
<path d="M151.184 141.173H206.805V137.866H151.184V141.173Z" fill="white"/>
<path d="M152.654 206.863H202.211V203.727H152.654V206.863Z" fill="white"/>
<path d="M149.743 209.998H199.299V206.863H149.743V209.998Z" fill="white"/>
<path d="M152.654 206.863H202.211V206.174H152.654V206.863Z" fill="#3E3121"/>
<path d="M155.727 203.729H152.812V139.629H155.727V203.729Z" fill="white"/>
<path d="M171.609 172.046C171.609 170.786 172.63 169.765 173.889 169.765C175.149 169.765 176.17 170.786 176.17 172.046C176.17 173.306 175.149 174.327 173.889 174.327C172.63 174.327 171.609 173.306 171.609 172.046Z" fill="white"/>
<path d="M170.396 120.989H186.459L202.242 104.687H186.18L170.396 120.989Z" fill="white"/>
<path d="M155.627 120.989H171.69L187.472 104.687H171.41L155.627 120.989Z" fill="#F28481"/>
<path d="M139.564 120.989H155.627L171.409 104.687H155.347L139.564 120.989Z" fill="white"/>
<path d="M124.212 120.989H140.275L156.057 104.687H139.995L124.212 120.989Z" fill="#F28481"/>
<path d="M108.149 120.989H124.211L139.994 104.687H125.464C124.486 104.687 123.55 105.087 122.874 105.795L108.149 120.989Z" fill="#F7F8FA"/>
<path d="M179.031 131.699C183.134 131.699 186.459 128.373 186.459 124.27V120.991H171.603V124.27C171.603 128.373 174.929 131.699 179.031 131.699Z" fill="white"/>
<path d="M163.658 131.699C168.094 131.699 171.69 128.103 171.69 123.668V120.991H155.627V123.668C155.627 128.103 159.223 131.699 163.658 131.699Z" fill="#E07A76"/>
<path d="M147.595 131.699C152.031 131.699 155.627 128.103 155.627 123.668V120.991H139.564V123.668C139.564 128.103 143.159 131.699 147.595 131.699Z" fill="white"/>
<path d="M132.243 131.699C136.678 131.699 140.275 128.103 140.275 123.668V120.991H124.212V123.668C124.212 128.103 127.807 131.699 132.243 131.699Z" fill="#E07A76"/>
<path d="M116.181 131.699C120.616 131.699 124.211 128.103 124.211 123.668V120.991H108.149V123.668C108.149 128.103 111.745 131.699 116.181 131.699Z" fill="white"/>
<path d="M112.473 108.745H112.17V50.1603H112.473V108.745Z" fill="#3E3121"/>
<path d="M124.363 89.9414H124.06V82.1315H142.442V82.4351H124.363V89.9414Z" fill="#3E3121"/>
<path d="M165.575 104.84H134.715V104.537H165.575V104.84Z" fill="#3E3121"/>
<path d="M174.681 98.9727H173.394V92.8984H173.697V98.6691H174.681V98.9727Z" fill="#3E3121"/>
<path d="M108.258 121.096L108.041 120.885L119.25 109.319L119.467 109.53L108.258 121.096Z" fill="#3E3121"/>
<path d="M116.309 131.791C114.524 131.791 113.19 131.284 113.163 131.274L113.273 130.991C113.326 131.011 118.561 132.992 122.071 128.9L122.301 129.097C120.45 131.255 118.142 131.791 116.309 131.791Z" fill="#3E3121"/>
<path d="M137.851 121.141H117.896V120.838H137.851V121.141Z" fill="#3E3121"/>
<path d="M163.948 131.715C161.498 131.715 159.536 131.003 158.101 129.59C154.961 126.494 155.471 121.029 155.476 120.975L155.778 121.005C155.773 121.058 155.279 126.382 158.316 129.374C159.989 131.023 162.426 131.676 165.558 131.315L165.592 131.616C165.022 131.682 164.473 131.715 163.948 131.715Z" fill="#3E3121"/>
<path d="M162.775 113.825L162.557 113.614L171.3 104.583L171.518 104.794L162.775 113.825Z" fill="#3E3121"/>
<path d="M151.89 121.141H147.185V120.838H151.89V121.141Z" fill="#3E3121"/>
<path d="M146.262 117.845L146.045 117.633L154.161 109.317L154.378 109.529L146.262 117.845Z" fill="#3E3121"/>
<path d="M53.4099 178.749C45.0901 166.984 16.4216 197.459 13.4229 209.494H19.8349C27.2205 206.489 60.1471 188.276 53.4099 178.749Z" fill="#BDB974"/>
<path d="M16.7737 209.697C32.9829 192.28 53.3914 179.169 53.5957 179.039L53.2244 178.457C53.0193 178.588 32.537 191.747 16.2686 209.227L16.7737 209.697Z" fill="#91904D"/>
<path d="M28.9607 197.732C29.4342 197.685 40.604 196.558 44.3376 195.337L44.1236 194.681C40.4605 195.879 29.0071 197.034 28.8921 197.046L28.9607 197.732Z" fill="#91904D"/>
<path d="M40.553 187.329L41.243 187.316C41.1765 183.61 43.1771 177.63 43.1972 177.571L42.5436 177.35C42.4596 177.6 40.4847 183.504 40.553 187.329Z" fill="#91904D"/>
<path d="M26.6565 189.816C20.072 196.712 14.6382 204.616 13.4229 209.494C25.3895 201.675 27.5829 191.102 26.6565 189.816Z" fill="#231F20"/>
<path d="M23.6386 170.55C14.0639 165.815 6.57515 194.249 10.7279 209.494H15.3931C19.185 205.687 31.3917 174.384 23.6386 170.55Z" fill="#BDB974"/>
<path d="M13.7626 209.552C15.2127 201.115 20.807 173.893 20.8635 173.619L20.1878 173.48C20.1316 173.755 14.5343 200.987 13.083 209.435L13.7626 209.552Z" fill="#91904D"/>
<path d="M14.6208 200.256L15.2088 199.896L12.1475 194.897L11.5596 195.257L14.6208 200.256Z" fill="#91904D"/>
<path d="M17.7086 189.18L24.9099 185.198L24.5766 184.595L17.375 188.576L17.7086 189.18Z" fill="#91904D"/>
<path d="M1.81689 192.326C6.03797 190.239 9.33902 202.773 7.50834 209.494H5.45214C3.78021 207.816 -1.60102 194.016 1.81689 192.326Z" fill="#BDB974"/>
<path d="M5.98031 209.552C5.34196 205.836 2.87596 193.838 2.85107 193.718L3.52676 193.579C3.55165 193.7 6.01977 205.708 6.65995 209.435L5.98031 209.552Z" fill="#91904D"/>
<path d="M5.95741 205.521L5.36914 205.161L6.71809 202.957L7.30606 203.317L5.95741 205.521Z" fill="#91904D"/>
<path d="M4.33755 200.706L1.16309 198.95L1.49638 198.347L4.67115 200.102L4.33755 200.706Z" fill="#91904D"/>
<path d="M63.0785 182.411C53.9564 190.77 76.7128 206.753 82.1812 209.39H87.808C89.2319 198.829 74.3443 172.087 63.0785 182.411Z" fill="#BDB974"/>
<path d="M63.2442 182.213L62.9121 182.606C63.0475 182.72 76.5282 194.218 84.8735 209.485L85.324 209.239C76.9316 193.885 63.3796 182.328 63.2442 182.213Z" fill="#91904D"/>
<path d="M65.5645 196.918C68.432 197.991 77.8553 198.98 78.255 199.021L78.3084 198.511C78.211 198.501 68.551 197.487 65.7438 196.436L65.5645 196.918Z" fill="#91904D"/>
<path d="M70.9312 189.838L71.408 190.03C72.7518 186.685 73.0083 181.51 73.0183 181.291L72.5056 181.267C72.5029 181.319 72.2422 186.575 70.9312 189.838Z" fill="#91904D"/>
<path d="M87.8075 209.39C88.3846 205.11 86.2801 198.174 82.8258 192.123C81.5794 193.251 79.9415 202.529 87.8075 209.39Z" fill="#231F20"/>
<path d="M95.8062 161.238C84.3999 165.978 84.6294 204.683 87.5104 209.39H93.2786C105.651 190.541 109.893 155.385 95.8062 161.238Z" fill="#BDB974"/>
<path d="M89.6953 209.334L90.198 209.441C92.4139 198.998 98.4228 165.329 98.4829 164.99L97.9772 164.9C97.9171 165.239 91.9091 198.899 89.6953 209.334Z" fill="#91904D"/>
<path d="M92.3916 197.563L92.7559 197.925L98.9139 191.744L98.5496 191.381L92.3916 197.563Z" fill="#91904D"/>
<path d="M87.4805 179.187L94.4948 184.11L94.7898 183.69L87.7758 178.767L87.4805 179.187Z" fill="#91904D"/>
<path d="M54.9329 86.581C60.5487 89.6319 62.441 86.9544 62.7813 86.3479L62.1773 79.2783C57.1918 78.1486 54.1157 77.0118 54.1157 77.0118L54.9329 86.581Z" fill="#E3A3A4"/>
<path d="M55.9752 66.8078C54.7956 68.0068 46.4591 77.6922 46.0371 78.1312C44.4274 79.8058 45.712 83.1472 48.4716 83.7844L48.8467 81.9458L49.9346 84.2615C51.6481 85.4363 54.7431 85.7641 55.6246 84.5696C58.3461 80.8819 54.1548 77.3814 54.0607 76.8845C53.793 75.4727 56.8688 65.8992 55.9752 66.8078Z" fill="#3E3121"/>
<path d="M58.0489 80.8723C58.041 80.8668 58.497 85.0011 62.63 84.5649L62.3623 81.4284C61.7856 81.5407 60.1537 81.9766 58.0489 80.8723Z" fill="#3E3121"/>
<path d="M62.9792 68.0949C62.0773 67.9799 58.4734 67.1063 57.5381 67.5267C55.3198 68.5296 54.8017 71.2652 54.1224 74.29C53.9077 75.2549 53.9457 77.2116 54.3324 77.9164C55.417 79.8946 59.778 82.6062 62.0263 82.4298C65.9912 82.1193 66.1612 76.2906 65.8543 72.9447C65.5818 69.962 64.6997 68.3144 62.9792 68.0949Z" fill="#E3A3A4"/>
<path d="M63.163 72.3215L63.0951 72.3764L63.0881 72.4638C63.0808 72.5524 62.9272 74.6469 64.0439 75.8335C64.0879 75.8808 64.0825 75.9051 64.0788 75.9197C64.0294 76.1297 63.4487 76.4612 62.9399 76.6473L63.0799 77.0312C63.2911 76.9541 64.3514 76.5425 64.4765 76.0141C64.5038 75.8984 64.5026 75.7248 64.3411 75.5533C63.4736 74.6311 63.4757 72.9962 63.4906 72.5895C63.6952 72.4571 64.3235 72.1275 65.2405 72.3509L65.3373 71.9542C64.0294 71.6345 63.1973 72.2932 63.163 72.3215Z" fill="#3E3121"/>
<path d="M60.577 65.5326C54.8968 64.7768 53.8659 70.3231 54.4138 72.6292C54.4138 72.6292 55.8514 74.0646 56.7317 71.5789C57.809 68.5368 62.4975 68.5908 64.4517 68.7881C64.4517 68.7881 64.7377 68.9721 65.6841 71.4687C65.6841 71.4687 66.4184 66.3103 60.577 65.5326Z" fill="#3E3121"/>
<path d="M53.3358 72.7917C52.2613 73.24 51.7535 74.4742 52.2015 75.5485C52.6495 76.623 53.8837 77.1308 54.9583 76.6828C56.0328 76.2348 56.5406 75.0006 56.0926 73.926C55.6443 72.8518 54.4104 72.3439 53.3358 72.7917Z" fill="#E3A3A4"/>
<path d="M54.4742 74.2559C54.6715 74.007 54.8133 73.7481 54.3865 73.3201C54.2459 73.1796 54.0687 73.1128 53.8732 73.1277L53.8656 73.128C53.2697 73.179 52.6593 73.984 52.5913 74.0759L52.9197 74.3188C53.1344 74.0292 53.5891 73.5617 53.8999 73.535H53.9038C53.9806 73.5293 54.0404 73.5523 54.0972 73.6091C54.3027 73.8146 54.2915 73.8289 54.154 74.0019C54.0511 74.1318 53.9099 74.3097 53.8692 74.5926C53.8079 75.0197 54.0504 75.203 54.1952 75.3126C54.2253 75.336 54.272 75.3712 54.2778 75.3709C54.2778 75.3709 54.2766 75.3845 54.2602 75.4158C54.143 75.6413 53.6489 75.4728 53.6443 75.471L53.5025 75.8544C53.6531 75.9102 53.8683 75.9567 54.0759 75.9391C54.2951 75.9203 54.5061 75.8301 54.6232 75.6037C54.8014 75.2595 54.5586 75.0752 54.4417 74.9869C54.32 74.8946 54.2468 74.8394 54.2739 74.6505C54.2987 74.4772 54.3837 74.3698 54.4742 74.2559Z" fill="#3E3121"/>
<path d="M58.6612 76.7767L58.2866 76.9397C59.1775 78.9899 62.1037 78.9729 62.2281 78.971L62.2224 78.5625C62.1947 78.5628 59.4449 78.5804 58.6612 76.7767Z" fill="#3E3121"/>
<path d="M58.6562 71.6203L58.7752 72.0113C60.6587 71.4385 61.2916 72.2984 61.3174 72.3354L61.6553 72.1051C61.6231 72.0574 60.8469 70.9552 58.6562 71.6203Z" fill="#3E3121"/>
<path d="M64.8481 68.3789L64.6436 68.7329C65.4118 69.1769 67.3084 70.5535 66.8655 71.5762C66.2259 73.0517 66.426 73.6618 67.0501 74.332L67.349 74.054C66.891 73.5616 66.6357 73.1342 67.2407 71.7386C67.9176 70.1759 64.9738 68.4518 64.8481 68.3789Z" fill="#3E3121"/>
<path d="M59.9131 73.1149C59.5218 73.1483 59.2317 73.4925 59.2654 73.8835C59.2987 74.2748 59.6427 74.565 60.0339 74.5316C60.4252 74.4979 60.7151 74.154 60.6817 73.7627C60.6483 73.3714 60.3041 73.0815 59.9131 73.1149Z" fill="#3E3121"/>
<path d="M64.1751 72.7505C63.7835 72.7839 63.4936 73.1281 63.527 73.5194C63.5604 73.9103 63.9046 74.2002 64.2959 74.1668C64.6869 74.1334 64.9771 73.7895 64.9437 73.3982C64.91 73.0073 64.5661 72.7171 64.1751 72.7505Z" fill="#3E3121"/>
<path d="M53.7707 76.5935C53.7877 76.6184 55.4691 79.0774 54.5196 80.3954C54.2613 80.7535 54.1019 80.6537 54.0421 80.6166C53.4438 80.2475 53.031 78.0848 53.6727 76.8542L53.3106 76.6654C52.5824 78.0614 53.0031 80.4558 53.8275 80.9642C53.907 81.0134 54.0488 81.0786 54.2233 81.0638C54.4079 81.048 54.6286 80.943 54.8508 80.6343C55.9675 79.0847 54.1833 76.4715 54.1065 76.361L53.7707 76.5935Z" fill="#EBDFD4"/>
<path d="M68.0033 195.683H57.4427C57.4427 195.683 58.3609 199.881 57.3771 203.029C56.3933 206.178 56.1963 208.998 58.2954 208.998C60.3944 208.998 68.9871 209.195 72.9884 209.392C76.9894 209.588 86.6318 209.392 86.6318 209.392C86.6318 209.392 84.8197 205.169 79.7854 205.169C75.52 205.169 70.2334 201.389 68.0033 195.683Z" fill="#E07A76"/>
<path d="M63.3085 208.03H62.892C62.892 202.818 57.8344 202.257 57.6191 202.236L57.6601 201.821C57.7166 201.827 63.3085 202.445 63.3085 208.03Z" fill="#3E3121"/>
<path d="M62.2759 204.681L61.9229 204.46C61.9517 204.414 64.883 199.837 70.5927 199.804L70.5951 200.22C65.1198 200.252 62.3035 204.637 62.2759 204.681Z" fill="#3E3121"/>
<path d="M63.1622 206.319L62.8076 206.101C62.838 206.052 65.9183 201.151 71.9206 201.115L71.923 201.532C66.1572 201.566 63.1913 206.272 63.1622 206.319Z" fill="#3E3121"/>
<path d="M77.1503 207.865H76.7339C76.7339 205.026 79.2906 204.776 79.3164 204.774L79.3526 205.189C79.2624 205.197 77.1503 205.414 77.1503 207.865Z" fill="#3E3121"/>
<path d="M56.6885 207.621C56.8688 208.671 57.5059 208.998 58.2954 208.998C60.3945 208.998 68.9872 209.195 72.9885 209.392C76.9895 209.588 86.6319 209.392 86.6319 209.392C86.6319 209.392 86.3472 208.731 85.6933 207.933L56.6885 207.621Z" fill="white"/>
<path d="M42.7851 115.395C42.4846 116.169 38.126 115.198 33.0502 113.226C27.974 111.255 24.1026 109.029 24.4031 108.256C24.7036 107.482 29.0622 108.453 34.1381 110.425C39.2142 112.396 43.0856 114.621 42.7851 115.395Z" fill="#3E3121"/>
<path d="M42.6411 136.288C45.7379 133.674 50.217 139.133 51.5641 141.366C53.6647 144.847 54.8834 148.951 54.9653 149.229C55.0057 149.365 54.9268 149.5 54.7893 149.532C54.6515 149.564 54.5079 149.479 54.4678 149.343C54.4481 149.276 53.2406 145.109 51.1392 141.645C49.9554 139.694 45.57 134.515 43.0221 136.747C40.1806 139.237 40.7634 146.394 41.3396 150.071L40.7698 150.118C40.1621 146.373 39.4934 138.945 42.6411 136.288Z" fill="white"/>
<path d="M29.5829 150.643L39.6885 174.424L26.0739 177.643L25.8462 173.447L22.3105 153.389L26.4111 152.293L29.5829 150.643Z" fill="#3E3121"/>
<path d="M75.992 158.665L80.1666 164.85L39.6881 174.422L35.5763 169.616L29.5825 150.642L69.8941 144.302L75.992 158.665Z" fill="#F28481"/>
<path d="M35.5768 169.618L39.6886 174.424L31.7785 175.102L26.1411 152.323L29.583 150.643L35.5768 169.618Z" fill="#E07A76"/>
<path d="M57.5503 147.634C58.0214 147.547 58.5286 148.04 58.6844 148.734C58.8395 149.426 58.5857 150.057 58.1167 150.145C57.6475 150.232 57.1399 149.742 56.9824 149.049C56.8255 148.355 57.0798 147.721 57.5503 147.634Z" fill="#231F20"/>
<path d="M42.8296 149.665C43.4242 149.556 44.0802 150.168 44.2945 151.031C44.5085 151.892 44.2022 152.677 43.6103 152.787C43.0181 152.898 42.3621 152.291 42.1451 151.429C41.9278 150.565 42.234 149.774 42.8296 149.665Z" fill="#231F20"/>
<path d="M49.4008 134.731C52.0586 135.803 53.6425 138.929 54.8442 141.293C56.7356 145.014 57.9765 148.432 58.0588 148.711C58.0988 148.847 58.0202 148.983 57.8827 149.015C57.7449 149.046 57.6013 148.961 57.5613 148.825C57.5415 148.758 56.0071 144.928 54.2435 141.147C54.0574 140.748 51.8847 136.432 49.2387 135.246C47.9089 134.649 46.4236 135.33 45.0926 136.559C41.4628 139.911 43.4082 151.02 43.4282 151.131C43.4531 151.271 43.363 151.411 43.2255 151.445C43.0886 151.478 42.9571 151.391 42.9323 151.252C42.8482 150.784 40.917 139.742 44.7699 136.179C46.2436 134.816 47.8773 134.117 49.4008 134.731Z" fill="white"/>
<path d="M41.8796 131.101L44.7596 127.496C44.7596 127.496 49.8658 131.997 47.8491 134.201C45.6809 136.57 42.0562 140.359 42.0562 140.359C42.0562 140.359 40.3886 137.815 41.8501 135.75C43.2637 133.752 41.8796 131.101 41.8796 131.101Z" fill="#E3A3A4"/>
<path d="M47.9146 134.114C47.9146 134.114 47.2513 135.073 47.4756 135.993C47.5457 136.28 48.0757 136.943 48.8983 137.729C49.578 138.378 50.0548 139.186 49.578 139.996C48.9114 141.127 48.0763 142.492 47.8089 142.696C47.3406 143.054 43.7129 140.106 43.7129 140.106C43.7129 140.106 47.1745 143.733 47.8226 145.498C47.9892 145.95 47.4298 146.074 46.9718 145.923C44.8724 145.232 42.0562 140.358 42.0562 140.358L43.4989 136.775L47.9146 134.114Z" fill="#E3A3A4"/>
<path d="M45.9531 137.151L49.3695 140.226C47.8861 139.45 45.9531 137.151 45.9531 137.151Z" fill="#3E3121"/>
<path d="M44.3232 138.4L48.6333 141.582C47.0819 140.953 44.3232 138.4 44.3232 138.4Z" fill="#3E3121"/>
<path d="M33.9443 111.525C35.313 112.817 44.8139 127.564 44.8139 127.564L42.0079 131.258C39.5899 127.897 28.3645 119.271 27.5158 118.446C22.6351 113.701 29.9921 107.792 33.9443 111.525Z" fill="#E3A3A4"/>
<path d="M57.4202 88.5718C50.7865 85.523 36.689 92.122 24.5117 108.133C24.5117 108.133 34.868 109.122 42.7538 115.454C42.7538 115.454 49.5623 109.85 55.9744 102.153C62.3864 94.4559 60.1891 89.8445 57.4202 88.5718Z" fill="#6C94D4"/>
<path d="M24.8096 108.084L24.479 107.832C34.5731 94.6308 45.0672 88.8398 51.5224 87.8217L51.5873 88.2333C45.2117 89.2386 34.8289 94.9814 24.8096 108.084Z" fill="#3E3121"/>
<path d="M33.871 110.479C36.0426 111.322 37.9768 112.215 39.411 113.005C39.2128 113.13 37.3503 117.114 33.6989 116.725C31.1373 116.452 27.3215 115.52 25.856 114.672C26.1298 111.762 26.9776 109.018 27.1053 108.39C28.7934 108.716 31.2275 109.452 33.871 110.479Z" fill="#E3A3A4"/>
<path d="M61.6408 110.034C59.5093 110.103 54.8326 110.64 52.8732 113.885C50.9142 117.132 49.0471 122.382 55.016 128.941C55.016 128.941 53.9666 185.146 56.8527 199.052C56.8527 199.052 68.5279 201.02 81.5157 198.134C81.5157 198.134 72.9985 114.268 71.6438 112.034C70.2891 109.8 63.5592 109.972 61.6408 110.034Z" fill="#3E3121"/>
<path d="M66.832 199.268C64.6868 189.321 66.0916 154.958 66.1062 154.612L66.5221 154.63C66.5075 154.975 65.1048 189.285 67.239 199.18L66.832 199.268Z" fill="#231F20"/>
<path d="M74.779 108.866C77.4484 111.903 78.8668 115.183 78.8668 123.029C78.8668 130.15 71.6443 174.513 65.5103 186.983C59.3766 199.453 50.0304 205.415 46.6195 206.07C43.2086 206.726 32.845 208.333 32.845 194.657C32.845 189.709 32.8192 186.294 32.7864 183.949C32.7427 180.838 33.8615 177.829 35.9217 175.497C42.4825 168.071 56.9036 150.876 60.2957 129.695C60.2957 129.695 53.241 120.22 60.9844 110.69C62.6897 108.591 72.7031 106.503 74.779 108.866Z" fill="#3E3121"/>
<path d="M49.0419 194.391L48.7241 194.121C48.8392 193.986 60.3298 180.213 70.4297 149.817C76.0853 132.795 77.1 114.689 77.1094 114.508L77.5256 114.53C77.5159 114.712 76.4978 132.874 70.8249 149.948C60.6968 180.429 49.1573 194.255 49.0419 194.391Z" fill="#231F20"/>
<path d="M46.6196 206.071C52.5967 204.858 48.8446 192.014 44.3813 186C41.9335 182.702 39.3503 181.045 37.173 180.161C35.0503 179.3 32.737 180.867 32.7744 183.158C32.8129 185.502 32.8451 189.12 32.8451 194.658C32.8451 208.334 43.2157 206.763 46.6196 206.071Z" fill="#231F20"/>
<path d="M71.6061 167.317L71.1997 167.226C75.2168 149.405 78.6587 128.029 78.6587 123.029H79.0749C79.0749 128.05 75.6284 149.472 71.6061 167.317Z" fill="#EAE3E1"/>
<path d="M40.9791 169.629L40.6479 169.377C46.0192 162.311 57.1869 147.619 60.0766 129.748C59.5339 128.969 55.0344 122.135 58.3895 114.495L58.7708 114.662C55.3225 122.514 60.4111 129.503 60.463 129.573L60.5152 129.643L60.5013 129.73C57.6167 147.742 46.3795 162.525 40.9791 169.629Z" fill="#EAE3E1"/>
<path d="M52.918 87.7156C52.918 87.7156 53.8034 85.6722 55.1831 85.5098C56.5627 85.3474 62.429 83.7732 63.0618 84.387C63.695 85.0007 64.2636 85.8051 64.2636 85.8051C64.2636 85.8051 70.3084 83.7413 73.6061 88.4341C76.0563 91.9206 76.8597 104.817 74.7793 109.252C74.7793 109.252 64.5037 107.042 52.7857 114.061C52.7857 114.061 49.1234 99.5508 48.2929 96.2553C47.4621 92.9597 49.6088 88.6906 52.918 87.7156Z" fill="#6C94D4"/>
<path d="M118.554 114.716C117.899 112.423 115.248 106.533 111.89 108.101C108.476 109.694 107.292 116.412 106.934 119.864L107.448 119.958C107.818 116.575 109.013 110.116 112.116 108.597C114.899 107.236 117.533 112.856 118.113 114.861C119.14 118.421 119.211 122.388 119.212 122.452C119.215 122.582 119.322 122.691 119.451 122.696C119.58 122.701 119.682 122.6 119.679 122.47C119.673 122.205 119.577 118.291 118.554 114.716Z" fill="white"/>
<path d="M89.8552 118.339L88.1851 136.892L87.3838 140.651L100.172 141.061L96.9318 117.652L93.7379 118.35L89.8552 118.339Z" fill="#3E3121"/>
<path d="M96.9316 117.653L97.6905 135.837L100.172 141.062L138.196 142.283L135.988 135.824L134.036 121.687L96.9316 117.653Z" fill="#C3DFF4"/>
<path d="M93.4919 118.313L93.0269 139.77L100.172 141.061L97.6905 135.836L96.9317 117.652L93.4919 118.313Z" fill="#6C94D4"/>
<path d="M121.502 122.793C121.475 123.442 121.806 123.996 122.241 124.031C122.677 124.066 123.051 123.569 123.08 122.921C123.108 122.271 122.778 121.715 122.342 121.679C121.905 121.643 121.529 122.142 121.502 122.793Z" fill="#231F20"/>
<path d="M107.835 121.347C107.821 122.16 108.255 122.852 108.805 122.896C109.353 122.94 109.811 122.32 109.828 121.509C109.845 120.696 109.412 119.999 108.861 119.953C108.309 119.907 107.85 120.532 107.835 121.347Z" fill="#231F20"/>
<path d="M121.468 115.433C120.972 113.058 120.32 109.921 118.23 108.339C117.032 107.432 115.422 107.66 113.795 108.511C109.543 110.736 108.61 120.946 108.572 121.379C108.561 121.508 108.656 121.616 108.785 121.619C108.914 121.622 109.028 121.52 109.039 121.391C109.048 121.288 109.984 111.015 113.99 108.924C115.458 108.156 116.932 107.91 117.964 108.754C120.016 110.434 120.904 114.763 120.973 115.16C121.626 118.919 122.066 122.668 122.067 122.732C122.07 122.861 122.177 122.971 122.306 122.975C122.435 122.98 122.537 122.879 122.534 122.75C122.528 122.483 122.249 119.17 121.468 115.433Z" fill="white"/>
<path d="M120.428 113.617C119.101 111.635 114.773 106.841 112.057 109.363C109.295 111.926 110.227 118.684 110.944 122.079L111.463 122.012C110.778 118.677 109.936 112.163 112.425 109.767C114.656 107.617 118.886 112.159 120.052 113.891C122.121 116.965 123.405 120.719 123.425 120.779C123.468 120.902 123.603 120.974 123.727 120.938C123.851 120.903 123.917 120.776 123.875 120.654C123.788 120.404 122.497 116.707 120.428 113.617Z" fill="white"/>
<path d="M98.8286 124.545L106.891 156.539L107.28 160.362L119.58 156.833L105.354 121.722L102.528 123.366L98.8286 124.545Z" fill="#3E3121"/>
<path d="M105.354 121.72L115.615 152.618L119.579 156.831L146.932 148.982L142.852 143.511L132.694 116.831L105.354 121.72Z" fill="#6C94D4"/>
<path d="M102.282 123.405L112.382 157.794L119.58 156.833L115.616 152.62L105.354 121.722L102.282 123.405Z" fill="#DACCC9"/>
<path d="M125.661 120.232C125.782 120.675 126.222 120.948 126.646 120.841C127.069 120.735 127.315 120.291 127.195 119.848C127.076 119.404 126.635 119.13 126.211 119.236C125.786 119.341 125.54 119.788 125.661 120.232Z" fill="#3E3121"/>
<path d="M112.29 123.33C112.459 123.879 113.03 124.214 113.564 124.08C114.098 123.947 114.395 123.395 114.228 122.847C114.061 122.297 113.49 121.958 112.954 122.092C112.417 122.225 112.12 122.781 112.29 123.33Z" fill="#3E3121"/>
<path d="M123.422 113.41C122.222 111.302 120.639 108.514 118.165 107.65C116.747 107.154 115.285 107.864 113.997 109.173C110.631 112.594 112.872 122.599 112.969 123.023C112.998 123.149 113.122 123.222 113.245 123.186C113.37 123.149 113.446 123.017 113.417 122.891C113.394 122.789 111.137 112.725 114.308 109.506C115.471 108.326 116.799 107.639 118.039 108.126C120.508 109.097 122.679 112.945 122.867 113.301C124.641 116.68 126.208 120.113 126.229 120.173C126.272 120.296 126.406 120.367 126.531 120.332C126.655 120.297 126.722 120.17 126.679 120.048C126.592 119.796 125.31 116.727 123.422 113.41Z" fill="white"/>
<path d="M106.142 113.978C106.142 113.978 110.465 113.75 111.067 111.204C111.714 108.468 116.347 105.181 116.347 105.181C116.347 105.181 113.933 103.437 109.871 106.166C105.809 108.894 103.604 109.002 103.604 109.002L106.142 113.978Z" fill="#E3A3A4"/>
<path d="M116.153 105.041C116.153 105.041 119.427 107.622 121.863 110.174C122.196 110.522 121.569 111.15 121.113 110.995C119.336 110.391 116.136 106.84 116.136 106.84C116.136 106.84 118.604 110.711 118.258 111.187C118.061 111.46 116.719 112.327 115.605 113.02C114.809 113.515 114.708 113.243 114.062 112.563C113.243 111.7 112.466 111.16 112.294 111.185C111.951 111.235 110.179 112.886 109.682 113.102C109.682 113.102 109.051 108.416 109.938 107.252C110.958 105.912 116.153 105.041 116.153 105.041Z" fill="#E3A3A4"/>
<path d="M116.018 112.777L113.429 109.12C113.429 109.12 115.207 111.315 116.018 112.777Z" fill="#3E3121"/>
<path d="M117.165 112.039L114.446 107.492C114.446 107.492 116.499 110.505 117.165 112.039Z" fill="#3E3121"/>
<path d="M104.553 109.115L106.474 113.901C102.424 114.736 85.1445 114.255 80.3534 110.832C77.6397 108.893 77.8495 106.157 78.4043 104.845C79.753 101.655 81.468 101.342 85.2289 102.304C85.751 102.437 104.553 109.115 104.553 109.115Z" fill="#E3A3A4"/>
<path d="M61.6696 88.0578C59.7248 89.9777 57.7451 94.9 60.9666 99.7691C64.1881 104.639 70.9744 112.625 79.0781 118.182C79.0781 118.182 86.4436 112.056 85.9562 102.457C85.9562 102.457 76.6234 89.6678 71.9543 86.7228C68.4848 84.5346 64.7484 85.0181 61.6696 88.0578Z" fill="#6C94D4"/>
<path d="M80.5886 99.1958C80.2884 99.1676 73.203 98.4822 70.4253 95.9045L70.7088 95.5991C73.3824 98.0806 80.5549 98.7742 80.6271 98.7805L80.5886 99.1958Z" fill="#231F20"/>
<path d="M78.9569 118.351C78.8364 118.265 66.8674 109.644 61.4634 100.919L61.8176 100.701C67.1779 109.354 79.0796 117.927 79.1992 118.013L78.9569 118.351Z" fill="#3E3121"/>
<path d="M64.6324 86.208L64.4536 85.8316C66.4755 84.8709 68.4106 85.2175 68.4923 85.2333L68.4155 85.6425C68.3967 85.6386 66.528 85.3068 64.6324 86.208Z" fill="#3E3121"/>
<path d="M42.063 183.363C39.4646 185.306 35.8218 193.526 33.9025 198.863C33.2323 200.725 32.4349 202.512 32.8449 204.562C33.2028 206.35 34.6234 207.922 35.9195 208.762C36.3366 209.032 36.3366 209.485 35.8397 209.481C34.0461 209.466 31.4228 209.448 29.662 209.448C26.7601 209.448 23.314 207.799 24.2783 203.594C25.2397 199.389 24.5791 196.23 23.45 191.656C22.3171 187.082 23.8931 183.933 28.9104 183.097C30.7101 182.8 32.1553 182.129 33.269 181.397C33.9162 180.97 34.4519 180.523 34.8796 180.11C34.8796 180.11 37.2494 178.855 42.063 183.363Z" fill="#E07A76"/>
<path d="M31.6317 203.298C30.9897 199.654 31.4429 195.838 31.6308 194.095C31.8484 192.086 32.8911 189.176 31.8615 186.408C30.6224 183.078 28.6545 183.171 28.4654 183.203C23.8673 183.973 22.3524 187.238 23.4491 191.672C24.5807 196.247 25.2406 199.406 24.2774 203.61C23.314 207.814 26.7616 209.464 29.6641 209.464C31.0009 209.464 33.1163 209.474 34.7206 209.485C35.2305 209.489 35.4561 208.842 35.0514 208.532C33.8206 207.586 32.1001 205.956 31.6317 203.298Z" fill="white"/>
<path d="M30.4839 203.299C29.8419 199.654 30.2948 195.839 30.483 194.096C30.7004 192.087 31.743 189.176 30.7134 186.408C29.4747 183.078 27.5065 183.171 27.3174 183.203C22.7193 183.973 21.2046 187.238 22.301 191.672C23.4326 196.247 24.0928 199.406 23.1294 203.61C22.1662 207.814 25.6136 209.464 28.5161 209.464C29.9958 209.464 32.429 209.47 34.0667 209.479C34.4279 209.481 34.5794 209.02 34.2867 208.809C33.0635 207.925 31.0033 206.247 30.4839 203.299Z" fill="#DACCC9"/>
<path d="M26.5645 192.958C24.7262 192.958 23.2358 191.043 23.2358 188.681C23.2358 186.319 24.7262 184.404 26.5645 184.404C28.4031 184.404 29.8935 186.319 29.8935 188.681C29.8935 191.043 28.4031 192.958 26.5645 192.958Z" fill="#BDA6A1"/>
<path d="M32.2356 192.535L31.9135 192.271C35.0352 188.464 34.1683 185.509 33.6507 184.415C33.0649 183.177 32.1269 182.51 31.542 182.51V182.094C32.4077 182.094 33.4294 182.975 34.0268 184.237C34.5783 185.402 35.5078 188.544 32.2356 192.535Z" fill="#3E3121"/>
<path d="M35.1255 196.337L34.73 196.207C35.8152 192.898 32.981 191.612 32.8599 191.559L33.0268 191.178C33.0599 191.192 36.3269 192.673 35.1255 196.337Z" fill="#3E3121"/>
<path d="M36.3062 193.928L35.9104 193.798C36.9928 190.498 34.1616 189.203 34.0405 189.15L34.2078 188.769C34.2409 188.783 37.5079 190.263 36.3062 193.928Z" fill="#3E3121"/>
<path d="M62.5909 123.724L65.5626 124.776L69.2862 121.46C68.8852 119.187 69.2913 115.749 69.4085 114.862C65.5313 114.396 61.7043 116.114 61.0471 116.427C60.5596 120.672 62.3201 123.343 62.5909 123.724ZM65.6555 125.251L62.3338 124.074L62.2965 124.026C62.2045 123.909 60.053 121.082 60.647 116.264L60.6607 116.155L60.759 116.105C60.8036 116.082 65.233 113.853 69.6723 114.476L69.8793 114.506L69.8489 114.713C69.8429 114.755 69.2367 119.004 69.7163 121.498L69.7388 121.614L65.6555 125.251Z" fill="#EAE3E1"/>
<path d="M53.3871 126.636L53.0277 126.426L54.6613 123.632C53.5252 120.453 54.3493 117.783 54.6638 116.965C53.0835 116.778 51.431 117.532 51.4134 117.54L51.2383 117.162C51.3181 117.125 53.2113 116.26 54.9962 116.594L55.2599 116.643L55.1467 116.887C55.1324 116.917 53.7507 119.957 55.0854 123.581L55.1197 123.673L53.3871 126.636Z" fill="#EAE3E1"/>
<path d="M51.4099 110.48L49.2207 100.395L49.6278 100.307L51.8169 110.392L51.4099 110.48Z" fill="#3E3121"/>
</svg>
