<svg width="88" height="88" viewBox="0 0 88 88" fill="none" xmlns="http://www.w3.org/2000/svg">
<g clip-path="url(#clip0_8573_15332)">
<path d="M48.5799 57.1819L15.9302 49.2223C-13.1424 39.6193 3.92801 21.0598 17.3236 14.9148L41.8739 3.65294C51.0325 -0.544955 69.4799 -4.44689 67.0517 12.111L63.9228 26.2312C59.5391 2.86632 50.3643 10.0082 45.0273 12.4537C37.0502 16.1142 27.7695 22.3215 27.5739 35.0943C27.4273 44.8063 47.3087 56.7847 48.5799 57.1819Z" fill="#0A0A0A"/>
<path d="M44.7007 32.7186L75.1585 45.5537C101.746 59.4559 81.074 75.1026 66.6029 79.0902L40.097 86.4034C30.2051 89.1293 11.2444 90.134 17.0948 74.2225L23.1325 60.811C22.554 84.4719 33.0733 78.8565 38.834 77.2677C47.4466 74.8923 57.8763 70.2115 60.7444 57.6646C62.9281 48.1317 45.874 33.295 44.7007 32.7186Z" fill="#0A0A0A"/>
</g>
<defs>
<clipPath id="clip0_8573_15332">
<rect width="88" height="88" fill="white"/>
</clipPath>
</defs>
</svg>
