<svg width="20" height="20" viewBox="0 0 20 20" fill="none" xmlns="http://www.w3.org/2000/svg">
<g clip-path="url(#clip0_2036_9148)">
<path d="M11.0407 12.9956L3.62033 11.1866C-2.98708 9.00413 0.892552 4.78605 3.937 3.38947L9.51663 0.82995C11.5981 -0.124117 15.7907 -1.01092 15.2388 2.75224L14.5277 5.96138C13.5314 0.651173 11.4463 2.27433 10.2333 2.83013C8.42033 3.66206 6.31107 5.0728 6.26663 7.97572C6.23329 10.183 10.7518 12.9054 11.0407 12.9956Z" fill="#FBAB20"/>
<path d="M10.1594 7.43652L17.0816 10.3536C23.1242 13.5132 18.4261 17.0692 15.1372 17.9755L9.11311 19.6376C6.86496 20.2571 2.5557 20.4855 3.88533 16.8692L5.25755 13.8212C5.12607 19.1986 7.51681 17.9224 8.82607 17.5613C10.7835 17.0214 13.1538 15.9576 13.8057 13.1061C14.302 10.9395 10.4261 7.56751 10.1594 7.43652Z" fill="#FBAB20"/>
</g>
<defs>
<clipPath id="clip0_2036_9148">
<rect width="20" height="20" fill="white"/>
</clipPath>
</defs>
</svg>
