<svg width="350" height="272" viewBox="0 0 350 272" fill="none" xmlns="http://www.w3.org/2000/svg">
<path opacity="0.5" d="M53.8158 210.709L48.4389 191.469L52.1328 186.846L46.5771 184.809L41.2002 165.569L63.8576 170.694L89.3181 176.453L53.8158 210.709Z" fill="#332000"/>
<path opacity="0.5" d="M195.923 259.409L176.947 237.549L178.918 229.204L170.379 229.983L151.403 208.123L184.253 200.78L221.166 192.53L212.186 216.321L210.351 221.183L195.923 259.409Z" fill="#332000"/>
<path opacity="0.5" d="M160.125 134.286L153.724 121.535L155.682 117.79L151.509 117.121L145.109 104.371L161.691 104.865L180.325 105.42L172.099 117.174L171.671 117.786L160.125 134.286Z" fill="#332000"/>
<path opacity="0.5" d="M333.246 271.993L305.481 255.444L304.653 245.905L295.87 249.715L268.104 233.167L300.375 213.897L336.637 192.244L335.185 226.41L333.246 271.993Z" fill="#332000"/>
<path opacity="0.5" d="M61.7448 96.9453L56.9856 64.9746L63.8469 58.2965L55.3377 53.907L50.5796 21.9363L85.9228 34.7274L125.637 49.0995L61.7448 96.9453Z" fill="#332000"/>
<path opacity="0.5" d="M330.513 164.282L298.703 142.422L298.452 130.993L287.692 134.856L255.882 112.996L306.864 84.1639L312.198 81.148L314.295 79.9609L320.062 76.7003L324.633 74.9845L328.483 71.0689L333.247 68.9361L335.735 67.2729L336.149 66.9964L337.985 64.9471L341.362 63.9651L343.511 62.066L344.42 61.263L349.109 57.2805L347.968 62.3184L346.468 65.7095L346.459 68.9789L344.72 72.8396L344.973 75.5429L344.018 78.775L342.295 82.4305L342.607 85.9851L340.848 90.1048L340.93 95.2271L339.357 100.337L330.513 164.282Z" fill="#332000"/>
<path d="M8.70068 160.074L17.6893 163.37L11.7122 170.85L70.957 150.742L77.8545 146.555L68.72 146.203L8.70068 160.074Z" fill="#FFE099"/>
<path d="M70.9567 150.742L77.8542 146.555L17.6889 163.37L11.7119 170.85L70.9567 150.742Z" fill="#FFE099"/>
<path d="M77.8545 146.561L8.7007 160.079L0 128.949L77.8545 146.561Z" fill="#FFFDFA"/>
<path d="M77.8542 146.559L11.7119 170.853L20.412 201.983L77.8542 146.559Z" fill="#FFFDFA"/>
<path d="M77.8547 146.555L36.6606 137.236L44.596 153.056L77.8547 146.555Z" fill="#FFECCC"/>
<path d="M77.8546 146.555L47.0161 157.882L53.2455 170.3L77.8546 146.555Z" fill="#FFECCC"/>
<path d="M131.522 221.439L145.215 220.191L142.055 233.574L206.587 171.054L212.966 161.38L200.894 166.54L131.522 221.439Z" fill="#FFE099"/>
<path d="M206.586 171.054L212.965 161.38L145.214 220.191L142.055 233.574L206.586 171.054Z" fill="#FFE099"/>
<path d="M212.966 161.377L131.522 221.436L101.093 186.382L212.966 161.377Z" fill="#FFFDFA"/>
<path d="M212.965 161.376L142.055 233.57L172.484 268.625L212.965 161.376Z" fill="#FFFDFA"/>
<path d="M212.965 161.372L153.771 174.603L173.795 190.257L212.965 161.372Z" fill="#FFECCC"/>
<path d="M212.966 161.374L179.905 195.035L195.623 207.322L212.966 161.374Z" fill="#FFECCC"/>
<path d="M130.137 95.8306L136.888 96.9113L133.721 102.972L172.498 80.7751L176.76 76.8979L170.309 77.9006L130.137 95.8306Z" fill="#FFE099"/>
<path d="M172.498 80.7751L176.761 76.8979L136.889 96.9113L133.721 102.972L172.498 80.7751Z" fill="#FFE099"/>
<path d="M176.761 76.8954L130.137 95.8281L119.78 75.1982L176.761 76.8954Z" fill="#FFFDFA"/>
<path d="M176.761 76.8934L133.722 102.967L144.077 123.597L176.761 76.8934Z" fill="#FFFDFA"/>
<path d="M176.761 76.8927L146.612 75.9942L154.338 85.9976L176.761 76.8927Z" fill="#FFECCC"/>
<path d="M176.76 76.8953L156.693 89.0523L162.758 96.9043L176.76 76.8953Z" fill="#FFECCC"/>
<path d="M284.899 227.774L293.683 223.964L294.51 233.502L323.557 178.09L325.667 170.302L318.809 176.345L284.899 227.774Z" fill="#FFE099"/>
<path d="M323.557 178.09L325.667 170.302L293.683 223.964L294.51 233.502L323.557 178.09Z" fill="#FFE099"/>
<path d="M325.667 170.304L284.9 227.775L257.134 211.227L325.667 170.304Z" fill="#FFFDFA"/>
<path d="M325.667 170.303L294.51 233.503L322.276 250.053L325.667 170.303Z" fill="#FFFDFA"/>
<path d="M325.666 170.304L289.404 191.958L306.06 197.945L325.666 170.304Z" fill="#FFECCC"/>
<path d="M325.664 170.301L311.138 199.768L324.212 204.467L325.664 170.301Z" fill="#FFECCC"/>
<path d="M44.3672 31.9666L52.8763 36.3572L46.015 43.0342L107.301 30.4548L114.666 27.159L105.647 25.6736L44.3672 31.9666Z" fill="#FFE099"/>
<path d="M107.301 30.4548L114.665 27.1591L52.8755 36.3572L46.0142 43.0342L107.301 30.4548Z" fill="#FFE099"/>
<path d="M114.666 27.1563L44.3665 31.9639L39.6084 -0.00687408L114.666 27.1563Z" fill="#FFFDFA"/>
<path d="M114.665 27.1576L46.0142 43.0327L50.7734 75.0034L114.665 27.1576Z" fill="#FFFDFA"/>
<path d="M114.665 27.1643L74.9512 12.7923L80.8558 29.4771L114.665 27.1643Z" fill="#FFECCC"/>
<path d="M114.666 27.1579L82.6582 34.559L87.2935 47.6562L114.666 27.1579Z" fill="#FFECCC"/>
<path d="M263.603 103.647L273.827 102.424L278.047 113.573L340.09 13.8366L344.174 1.87482L333.018 14.0977L263.603 103.647Z" fill="#FF735F"/>
<path d="M340.09 13.8371L344.174 1.87531L273.827 102.425L278.047 113.574L340.09 13.8371Z" fill="#FF614F"/>
<path d="M344.175 1.87902L263.603 103.651L221.872 74.9726L306.069 27.356L312.066 25.1058L317.117 19.9692L323.366 17.1716L327.174 14.6252L329.583 11.9373L334.012 10.6493L338.024 7.10452L344.175 1.87902Z" fill="#FF735F"/>
<path d="M344.174 1.87375L278.047 113.572L319.779 142.25L331.382 58.3604L333.446 51.6571L333.338 44.9362L335.646 39.5308L335.235 34.8681L337.497 30.0727L338.749 25.8323L338.418 22.2865L340.699 17.2222L340.71 12.9326L342.678 8.48273L344.174 1.87375Z" fill="#FF735F"/>
<path d="M342.673 8.48592L328.44 27.9902L342.673 8.48592Z" fill="#FF8E74"/>
<path d="M326.243 32.1572L338.414 22.2866L340.695 17.2223L326.507 31.7107L326.243 32.1572Z" fill="#FF8E74"/>
<path d="M322.643 38.2402L335.231 34.8699L337.493 30.0745L338.745 25.8341L325.344 33.6774L322.643 38.2402Z" fill="#FF8E74"/>
<path d="M326.337 43.0858L333.333 44.9399L335.641 39.5345L329.897 39.6256L326.337 43.0858Z" fill="#FF8E74"/>
<path d="M329.368 70.9497L322.182 58.7663L320.397 55.1503L325.065 52.2473L332.239 55.577L333.446 51.6571L318.13 45.8666L278.047 113.572L319.779 142.25L329.368 70.9497Z" fill="#FF8E74"/>
<path d="M342.674 8.48151L344.171 1.87253L340.18 8.61426L342.674 8.48151Z" fill="#FF8E74"/>
<path d="M329.432 26.7773L340.707 12.9385L342.675 8.48864L329.875 26.0281L329.432 26.7773Z" fill="#FF8E74"/>
<path d="M288.754 37.1488L221.872 74.9726L263.603 103.651L306.893 48.9701L288.754 37.1488Z" fill="#FF8E74"/>
<path d="M337.088 10.8239L334.009 10.6472L330.57 19.0576L337.088 10.8239Z" fill="#FF8E74"/>
<path d="M326.626 14.9864L325.421 25.5581L325.48 25.4835L329.578 11.9354L327.169 14.6233L326.626 14.9864Z" fill="#FF8E74"/>
<path d="M324.351 26.9147L317.113 19.9701L312.062 25.1067L321.32 30.7437L324.351 26.9147Z" fill="#FF8E74"/>
<path d="M316.007 37.4536L319.92 32.5101L306.066 27.3548L303.931 28.7711L316.007 37.4536Z" fill="#FF8E74"/>
<path d="M306.733 32.8633L298.503 31.6334L294.96 33.6378L294.768 33.7969C294.768 33.7969 305.757 38.2962 306.2 38.7975C306.604 39.255 309.487 44.1953 309.988 45.0576L312.942 41.3286L306.733 32.8633Z" fill="#FF8E74"/>
<path d="M336.828 8.15551L338.291 9.3042L340.073 7.05401L340.504 6.4956L339.377 5.94924L338.02 7.10228L336.828 8.15551Z" fill="#FF8E74"/>
<path d="M306.89 48.9705L306.075 57.9624C306.075 57.9624 311.265 51.4851 311.44 51.0155C311.616 50.5449 309.987 45.0582 309.987 45.0582L306.89 48.9705Z" fill="#FF614F"/>
<path d="M316.007 37.4535L314.985 41.3395L315.976 42.9072L318.589 39.5336L316.941 39.1387L319.92 32.5099L316.007 37.4535Z" fill="#FF614F"/>
</svg>
