<svg width="246" height="179" viewBox="0 0 246 179" fill="none" xmlns="http://www.w3.org/2000/svg">
<path d="M173.667 114.852H151.243C151.204 115.993 151.151 116.834 151.121 117.265C151.399 117.533 151.574 117.907 151.574 118.324C151.574 119.137 150.914 119.798 150.1 119.798C149.287 119.798 148.627 119.137 148.627 118.324C148.627 117.889 148.82 117.502 149.119 117.232C149.124 117.173 149.128 117.106 149.134 117.022C149.152 116.755 149.177 116.362 149.201 115.863C149.216 115.565 149.23 115.223 149.244 114.852H142.713H137.699H136.763H135.205H133.207H131.553H126.421C126.458 116.036 126.516 116.877 126.542 117.232C126.843 117.501 127.036 117.888 127.036 118.324C127.036 119.137 126.376 119.798 125.563 119.798C124.749 119.798 124.089 119.137 124.089 118.324C124.089 117.907 124.264 117.534 124.542 117.266C124.51 116.833 124.456 115.992 124.421 114.852H112.445L105.11 175.533H128.248H146.855H167.46L173.667 114.852Z" fill="#82D4C1"/>
<path d="M87.0339 86.663H64.5923C64.5536 87.8091 64.5091 88.6488 64.4839 89.072C64.7641 89.341 64.9404 89.7166 64.9404 90.1353C64.9404 90.9489 64.2809 91.6082 63.4674 91.6082C62.6537 91.6082 61.9943 90.9489 61.9943 90.1353C61.9943 89.7007 62.1851 89.3149 62.4836 89.0459C62.4883 88.9676 62.4939 88.8746 62.5007 88.752C62.5191 88.4241 62.5437 87.9418 62.5682 87.3302C62.5766 87.1237 62.5847 86.8979 62.5929 86.663H60.9802H48.5895H46.59H39.8046C39.8424 87.8488 39.8899 88.6839 39.9128 89.0448C40.2115 89.3149 40.4028 89.7007 40.4028 90.1353C40.4028 90.9489 39.7434 91.6082 38.9297 91.6082C38.1162 91.6082 37.4567 90.9489 37.4567 90.1353C37.4567 89.7166 37.6325 89.341 37.9124 89.0732C37.8864 88.6488 37.8411 87.8125 37.8053 86.663H25.8123L18.4771 175.533H55.2585H80.8271L87.0339 86.663Z" fill="#F03752"/>
<path d="M109.243 42.1591C109.197 43.5004 109.145 44.4831 109.116 44.979C109.444 45.2933 109.65 45.7325 109.65 46.2227C109.65 47.1759 108.878 47.9475 107.926 47.9475C106.973 47.9475 106.201 47.1759 106.201 46.2227C106.201 45.7154 106.425 45.2638 106.774 44.9472C106.78 44.8564 106.786 44.7475 106.794 44.6045C106.815 44.2198 106.844 43.6559 106.873 42.9398C106.883 42.6981 106.892 42.4337 106.902 42.1591H80.2254C80.2696 43.5469 80.3253 44.524 80.3522 44.9472C80.7018 45.2627 80.9258 45.7143 80.9258 46.2227C80.9258 47.1759 80.1536 47.9475 79.2013 47.9475C78.2489 47.9475 77.4768 47.1759 77.4768 46.2227C77.4768 45.7336 77.6828 45.2944 78.0103 44.9801C77.98 44.4831 77.927 43.5049 77.885 42.1591H63.8458L63.2793 50.9568C63.8696 51.1248 64.4311 51.3586 64.9558 51.657C66.09 52.3004 67.0581 53.215 67.8867 54.3112C69.5418 56.5069 70.6716 59.4266 71.4881 62.6539C73.111 69.1049 73.4478 76.819 73.4502 82.3112C73.4501 84.0144 73.4169 85.4975 73.3773 86.6629H87.0343L98.3193 175.533H98.2972H105.11L112.445 114.852H124.421C124.401 114.179 124.385 113.406 124.385 112.548C124.386 109.647 124.552 105.828 125.212 101.972C125.876 98.116 127.022 94.2192 129.071 91.1509C130.129 89.5724 131.446 88.2141 133.057 87.2439L135.513 42.1591H109.243Z" fill="#F89C33"/>
<path d="M192.97 86.663C192.932 87.8091 192.887 88.6488 192.863 89.072C193.143 89.341 193.319 89.7166 193.319 90.1353C193.319 90.9489 192.659 91.6082 191.846 91.6082C191.032 91.6082 190.373 90.9489 190.373 90.1353C190.373 89.7007 190.564 89.3149 190.862 89.0459C190.867 88.9676 190.872 88.8746 190.879 88.752C190.897 88.4241 190.922 87.9418 190.947 87.3302C190.955 87.1237 190.963 86.8979 190.971 86.663H168.183C168.22 87.8488 168.268 88.6839 168.292 89.0448C168.59 89.3149 168.781 89.7007 168.781 90.1353C168.781 90.9489 168.122 91.6082 167.308 91.6082C166.494 91.6082 165.835 90.9489 165.835 90.1353C165.835 89.7166 166.011 89.341 166.291 89.0732C166.265 88.6488 166.22 87.8125 166.183 86.663H154.19L154.059 88.2584C154.192 88.3889 154.329 88.516 154.456 88.6533C156.134 90.4768 157.282 92.9086 158.106 95.5764C159.745 100.913 160.08 107.254 160.083 111.769C160.083 112.939 160.059 113.981 160.029 114.852H173.667L184.952 175.533H184.743H209.205L215.412 86.663H192.97Z" fill="#F68D94"/>
<path d="M189.493 52.646C190.573 52.6471 191.498 52.907 192.348 53.3858C193.829 54.221 195.095 55.7972 196.116 57.9214C197.649 61.0999 198.598 65.4357 199.139 69.8465C199.682 74.2607 199.83 78.7543 199.83 82.3016C199.83 84.0116 199.796 85.497 199.756 86.6533H201.755C201.795 85.4868 201.828 84.0048 201.828 82.3016C201.826 76.8094 201.489 69.0953 199.866 62.6443C199.049 59.417 197.92 56.4973 196.264 54.3016C195.436 53.2054 194.468 52.2908 193.333 51.6474C192.202 51.004 190.904 50.6454 189.493 50.6477C187.843 50.6454 186.336 51.0108 185.006 51.6724C184.929 51.7109 184.858 51.7586 184.782 51.7983C185.412 52.1853 185.988 52.6562 186.517 53.1975C187.413 52.8457 188.391 52.6471 189.493 52.646Z" fill="#120E0F"/>
<path d="M199.633 89.2455C199.595 89.7958 200.01 90.2724 200.56 90.311C201.112 90.3496 201.589 89.9343 201.627 89.3839C201.627 89.3805 201.635 89.2647 201.648 89.056C201.384 88.8097 201.032 88.6554 200.644 88.6554C200.257 88.6554 199.908 88.8074 199.646 89.0514C199.645 89.0741 199.642 89.1013 199.641 89.1206C199.637 89.2046 199.633 89.2443 199.633 89.2455Z" fill="#120E0F"/>
<path d="M176.166 90.3108C176.716 90.27 177.13 89.7911 177.089 89.2408C177.089 89.2408 177.087 89.2079 177.082 89.1364C177.08 89.1069 177.078 89.0694 177.074 89.0263C176.816 88.7982 176.479 88.6552 176.107 88.6552C175.705 88.6552 175.342 88.8175 175.076 89.0785C175.088 89.2737 175.095 89.3826 175.095 89.3871C175.136 89.9375 175.615 90.3506 176.166 90.3108Z" fill="#120E0F"/>
<path d="M179.146 63.7314C180.063 60.5302 181.349 57.7013 183.045 55.7393C183.558 55.1458 184.111 54.6397 184.698 54.2085C184.334 53.8863 183.958 53.6082 183.563 53.3858C183.353 53.2667 183.136 53.1623 182.915 53.0704C181.576 54.2051 180.467 55.6633 179.556 57.3245C177.533 61.0193 176.397 65.7285 175.738 70.406C175.081 75.0823 174.916 79.7257 174.916 83.2513C174.916 84.5597 174.939 85.7103 174.968 86.6533H176.968C176.938 85.7172 176.914 84.5654 176.914 83.2513C176.911 77.9781 177.301 70.1359 179.146 63.7314Z" fill="#120E0F"/>
<path d="M215.412 86.663L209.205 175.533L217.952 170.526L226.697 175.533L215.412 86.663Z" fill="#E47682"/>
<path d="M209.205 175.533H226.697L217.952 170.526L209.205 175.533Z" fill="#F68D94"/>
<path d="M215.177 93.6858L217.552 169.037C217.559 169.258 217.743 169.43 217.964 169.424C218.185 169.417 218.358 169.232 218.351 169.012L215.976 93.6597C215.97 93.4396 215.785 93.266 215.564 93.2728C215.343 93.2807 215.171 93.4646 215.177 93.6858Z" fill="#AC5661"/>
<path d="M157.397 101.612C156.86 98.0215 155.917 94.506 154.408 91.9483C154.223 91.634 154.028 91.3389 153.828 91.0553L151.864 114.846H158.029C158.06 113.982 158.084 112.938 158.084 111.763C158.084 108.87 157.937 105.203 157.397 101.612Z" fill="#F68D94"/>
<path d="M191.776 90.3081C191.226 90.2696 190.811 89.793 190.849 89.2426C190.849 89.2415 190.851 89.2018 190.857 89.1178C190.858 89.0962 190.861 89.0633 190.862 89.0372C190.563 89.3062 190.373 89.692 190.373 90.1266C190.373 90.9402 191.032 91.5995 191.845 91.5995C192.659 91.5995 193.318 90.9402 193.318 90.1266C193.318 89.7079 193.142 89.3323 192.862 89.0633C192.85 89.2664 192.843 89.3776 192.842 89.3799C192.804 89.9314 192.327 90.3467 191.776 90.3081Z" fill="#AC5661"/>
<path d="M168.305 89.2381C168.346 89.7884 167.931 90.2673 167.381 90.3081C166.831 90.3479 166.352 89.9348 166.312 89.3845C166.312 89.3799 166.303 89.2664 166.292 89.0645C166.011 89.3323 165.835 89.7079 165.835 90.1266C165.835 90.9402 166.495 91.5995 167.308 91.5995C168.122 91.5995 168.781 90.9402 168.781 90.1266C168.781 89.692 168.591 89.3062 168.292 89.0361C168.293 89.0724 168.296 89.1076 168.298 89.1337C168.302 89.2052 168.305 89.2381 168.305 89.2381Z" fill="#AC5661"/>
<path d="M166.312 89.3871C166.351 89.9375 166.83 90.3506 167.381 90.3108C167.931 90.27 168.345 89.7911 168.304 89.2408C168.304 89.2408 168.302 89.2079 168.298 89.1364C168.295 89.1103 168.293 89.0751 168.292 89.0388C168.268 88.6779 168.22 87.8428 168.183 86.6569C168.153 85.7208 168.13 84.569 168.13 83.2561C168.127 77.9818 168.518 70.1395 170.362 63.7361C171.28 60.5338 172.565 57.7049 174.262 55.7429C175.109 54.7602 176.054 53.992 177.111 53.4655C178.171 52.9412 179.348 52.6507 180.709 52.6496C181.521 52.6507 182.245 52.7982 182.915 53.074C183.137 53.1659 183.353 53.2703 183.563 53.3894C183.958 53.6119 184.335 53.8899 184.698 54.2121C185.7 55.1052 186.582 56.3659 187.331 57.925C188.865 61.1035 189.815 65.4394 190.354 69.8513C190.898 74.2643 191.046 78.7591 191.045 82.3052C191.045 84.0152 191.011 85.5006 190.971 86.6569C190.963 86.8918 190.955 87.1176 190.947 87.3242C190.922 87.9358 190.897 88.4181 190.879 88.746C190.872 88.8686 190.867 88.9616 190.862 89.0399C190.861 89.066 190.859 89.0989 190.858 89.1205C190.852 89.2045 190.85 89.2442 190.85 89.2453C190.811 89.7957 191.226 90.2723 191.777 90.3108C192.327 90.3494 192.805 89.9341 192.842 89.3826C192.843 89.3803 192.85 89.2691 192.863 89.066C192.888 88.6428 192.932 87.803 192.97 86.6569C193.01 85.4915 193.043 84.0084 193.044 82.3052C193.041 76.813 192.705 69.0989 191.081 62.6479C190.265 59.4206 189.135 56.5009 187.481 54.3052C187.181 53.9092 186.855 53.546 186.517 53.2011C185.988 52.6598 185.412 52.1889 184.782 51.8019C184.704 51.7543 184.63 51.6964 184.549 51.651C183.417 51.0076 182.12 50.649 180.709 50.6513C179.058 50.649 177.553 51.0144 176.222 51.676C173.887 52.838 172.121 54.8703 170.771 57.3282C168.749 61.0229 167.612 65.7321 166.953 70.4096C166.297 75.0859 166.131 79.7293 166.131 83.2561C166.131 84.5633 166.154 85.714 166.184 86.6569C166.22 87.8064 166.265 88.6427 166.291 89.0671C166.303 89.2691 166.312 89.3826 166.312 89.3871Z" fill="#312628"/>
<path d="M93.0596 15.3181C94.1336 11.57 95.638 8.25766 97.6241 5.96206C98.224 5.26646 98.871 4.67525 99.5577 4.17029C99.1335 3.79242 98.6922 3.46787 98.2303 3.20688C97.9834 3.06731 97.7308 2.94362 97.4716 2.83696C97.0635 3.18306 96.667 3.54618 96.2961 3.94108C94.4492 5.911 93.0461 8.44148 91.9501 11.2647C90.3097 15.5008 89.3597 20.4142 88.8067 25.1791C88.2554 29.9427 88.1072 34.5566 88.1069 38.1685C88.1069 39.6993 88.1339 41.0451 88.1683 42.1504H90.5087C90.4739 41.0542 90.4463 39.7061 90.4463 38.1685C90.443 31.9955 90.8999 22.8142 93.0596 15.3181Z" fill="#120E0F"/>
<path d="M89.5698 46.4284C90.2141 46.3808 90.6983 45.8202 90.6513 45.1768H90.6512C90.6512 45.1757 90.6484 45.1371 90.6428 45.0542C90.6404 45.0179 90.6377 44.9748 90.6344 44.9249C90.3309 44.6582 89.937 44.4903 89.5008 44.4903C89.0305 44.4903 88.6055 44.6798 88.2944 44.985C88.3084 45.2142 88.3177 45.3425 88.3179 45.347C88.365 45.9904 88.9256 46.475 89.5698 46.4284Z" fill="#120E0F"/>
<path d="M117.041 45.1805C116.997 45.825 117.483 46.3845 118.127 46.4287C118.772 46.473 119.331 45.9873 119.376 45.3428C119.376 45.3394 119.385 45.2043 119.399 44.9592C119.091 44.671 118.68 44.4906 118.225 44.4906C117.772 44.4906 117.364 44.6687 117.056 44.9547C117.055 44.9808 117.053 45.0137 117.052 45.0352C117.045 45.1328 117.041 45.1805 117.041 45.1805Z" fill="#120E0F"/>
<path d="M105.172 2.33992C106.436 2.34219 107.519 2.64517 108.514 3.20687C109.383 3.69822 110.184 4.39836 110.921 5.29482C112.211 6.8585 113.29 9.02021 114.145 11.5405C115.431 15.3215 116.222 19.8911 116.681 24.4154C117.14 28.9408 117.272 33.423 117.272 37.0565C117.272 39.0582 117.231 40.7966 117.185 42.1504H119.526C119.572 40.7853 119.611 39.0502 119.611 37.0565C119.608 30.627 119.214 21.5955 117.314 14.0449C116.359 10.2673 115.036 6.84829 113.098 4.27808C112.128 2.99582 110.995 1.92347 109.667 1.17113C108.342 0.417652 106.823 -0.00219727 105.172 7.24792e-05C103.24 -0.0010643 101.477 0.425613 99.9189 1.20065C99.8287 1.24604 99.745 1.30051 99.6562 1.34816C100.394 1.7998 101.068 2.35241 101.688 2.9856C102.737 2.57368 103.881 2.34105 105.172 2.33992Z" fill="#120E0F"/>
<path d="M134.544 86.4833C135.032 86.2836 135.55 86.1315 136.081 86.0022L135.238 50.3619C135.232 50.1043 135.436 49.8899 135.695 49.883C135.953 49.8774 136.167 50.0816 136.174 50.3404L137.012 85.8149C137.639 85.7162 138.284 85.6549 138.963 85.6549C139.257 85.6549 139.543 85.6742 139.827 85.6992L135.513 42.1497L133.057 87.2345C133.529 86.9508 134.021 86.6955 134.544 86.4833Z" fill="#BC7227"/>
<path d="M137.857 91.1414C138.506 90.1724 139.255 89.2884 140.107 88.5224L140.029 87.736C139.687 87.6872 139.338 87.6532 138.963 87.6532C138.287 87.6532 137.656 87.7133 137.06 87.8234L137.164 92.2705C137.383 91.8847 137.613 91.5068 137.857 91.1414Z" fill="#BC7227"/>
<path d="M133.996 101.966C134.464 99.2516 135.179 96.5225 136.272 94.0703L136.129 88.047C135.843 88.131 135.566 88.2286 135.298 88.3375C134.421 88.6938 133.635 89.1875 132.918 89.7889L131.553 114.846H133.207C133.185 114.174 133.17 113.4 133.17 112.542C133.17 109.641 133.336 105.822 133.996 101.966Z" fill="#BC7227"/>
<path d="M135.168 112.542C135.168 113.403 135.184 114.178 135.205 114.846H136.763L136.413 100.072C135.412 104.451 135.165 109.148 135.168 112.542Z" fill="#BC7227"/>
<path d="M137.383 96.6598C137.346 96.7665 137.313 96.8765 137.276 96.9832L137.698 114.846H142.713L140.364 91.137C139.114 92.6314 138.127 94.5355 137.383 96.6598Z" fill="#BC7227"/>
<path d="M137.164 92.2699L137.06 87.8228C136.738 87.8818 136.428 87.9544 136.128 88.0429L136.271 94.0662C136.546 93.45 136.838 92.8463 137.164 92.2699Z" fill="#7E4A1A"/>
<path d="M136.174 50.3429C136.167 50.0842 135.952 49.88 135.695 49.8856C135.436 49.8925 135.232 50.1069 135.237 50.3645L136.081 86.0048C136.385 85.931 136.694 85.8675 137.012 85.8175L136.174 50.3429Z" fill="#7E4A1A"/>
<path d="M136.413 100.072L136.763 114.846H137.699L137.277 96.9832C136.94 97.9795 136.655 99.0155 136.413 100.072Z" fill="#7E4A1A"/>
<path d="M70.7609 69.8477C70.2209 65.4358 69.2711 61.0999 67.7375 57.9214C66.7175 55.7972 65.4518 54.221 63.9706 53.3858C63.7052 53.236 63.4291 53.1158 63.1466 53.0102L62.5605 62.1132C62.608 62.2902 62.658 62.465 62.7035 62.6443C64.3264 69.0953 64.6634 76.8094 64.6656 82.3016C64.6655 84.0048 64.6324 85.4879 64.5928 86.6533H71.378C71.4177 85.497 71.4519 84.0116 71.4519 82.3016C71.4522 78.7555 71.3045 74.2607 70.7609 69.8477Z" fill="#F89C33"/>
<path d="M62.0304 70.3367L60.98 86.6533H62.5927C62.6324 85.497 62.6666 84.0116 62.6666 82.3016C62.6668 78.886 62.5261 74.5921 62.0304 70.3367Z" fill="#F89C33"/>
<path d="M132.447 90.1996C130.77 91.7883 129.508 94.0646 128.598 96.6598C126.772 101.847 126.379 108.242 126.384 112.542C126.384 113.403 126.399 114.178 126.42 114.846H131.553L132.918 89.7889C132.759 89.9228 132.599 90.0555 132.447 90.1996Z" fill="#F89C33"/>
<path d="M107.845 46.4279C107.2 46.3836 106.714 45.8242 106.759 45.1796C106.759 45.1796 106.762 45.132 106.768 45.0344C106.77 45.0083 106.772 44.9708 106.774 44.9391C106.425 45.2557 106.201 45.7073 106.201 46.2145C106.201 47.1677 106.973 47.9393 107.926 47.9393C108.878 47.9393 109.65 47.1677 109.65 46.2145C109.65 45.7243 109.444 45.2852 109.116 44.9708C109.102 45.2091 109.093 45.3385 109.093 45.3419C109.048 45.9864 108.489 46.4721 107.845 46.4279Z" fill="#BC7227"/>
<path d="M80.3676 45.1762H80.3678C80.4148 45.8196 79.9306 46.3802 79.2863 46.4279C78.642 46.4744 78.0814 45.9898 78.0344 45.3464C78.0342 45.3419 78.0246 45.208 78.01 44.972C77.6825 45.2863 77.4766 45.7254 77.4766 46.2145C77.4766 47.1677 78.2486 47.9393 79.201 47.9393C80.1533 47.9393 80.9255 47.1677 80.9255 46.2145C80.9255 45.7061 80.7015 45.2545 80.3519 44.9391C80.3545 44.9822 80.3571 45.0219 80.3592 45.0537C80.3647 45.1365 80.3676 45.1751 80.3676 45.1762Z" fill="#BC7227"/>
<path d="M78.0343 45.347C78.0813 45.9904 78.6419 46.475 79.2862 46.4284C79.9305 46.3808 80.4147 45.8202 80.3677 45.1768H80.3675C80.3675 45.1757 80.3646 45.1371 80.3591 45.0542C80.357 45.0225 80.3544 44.9828 80.3518 44.9396C80.3249 44.5164 80.2692 43.5394 80.2251 42.1516C80.1902 41.0554 80.1625 39.7073 80.1625 38.1697C80.1592 31.9955 80.6161 22.8154 82.7758 15.3181C83.85 11.5712 85.3544 8.25883 87.3404 5.96323C88.333 4.81259 89.438 3.91273 90.6766 3.29656C91.9165 2.68266 93.2947 2.34222 94.8883 2.34109C95.8387 2.34222 96.6865 2.51471 97.4713 2.83812C97.7305 2.94479 97.9831 3.06847 98.23 3.20804C98.692 3.46904 99.1333 3.79358 99.5575 4.17145C99.9313 4.50393 100.292 4.87613 100.637 5.29598C101.928 6.85967 103.006 9.02137 103.861 11.5417C105.148 15.3226 105.939 19.8923 106.397 24.4165C106.856 28.9419 106.988 33.4242 106.988 37.0577C106.988 39.0594 106.948 40.7978 106.901 42.1516C106.892 42.4262 106.882 42.6906 106.873 42.9323C106.844 43.6483 106.815 44.2123 106.794 44.5969C106.786 44.7399 106.779 44.8489 106.774 44.9396C106.772 44.9714 106.769 45.0088 106.768 45.0349C106.762 45.1325 106.758 45.1802 106.758 45.1802C106.713 45.8247 107.2 46.3842 107.844 46.4284C108.489 46.4727 109.047 45.987 109.092 45.3425C109.092 45.3391 109.101 45.2097 109.115 44.9714C109.145 44.4755 109.197 43.4928 109.242 42.1516C109.288 40.7864 109.327 39.0514 109.327 37.0577C109.325 30.6282 108.93 21.5967 107.031 14.046C106.075 10.2685 104.752 6.84946 102.815 4.27925C102.464 3.81514 102.083 3.39074 101.688 2.98677C101.068 2.35358 100.394 1.80096 99.6562 1.34933C99.5638 1.2926 99.4778 1.22563 99.3836 1.17229C98.0582 0.418823 96.5397 -0.00102615 94.8884 0.00124359C92.9561 0.000106812 91.193 0.426781 89.6354 1.20182C88.2717 1.87926 87.0675 2.8177 86.0124 3.94224C84.1654 5.91217 82.7624 8.44264 81.6665 11.2659C80.026 15.5019 79.076 20.4143 78.523 25.1791C77.9717 29.9439 77.8234 34.5578 77.8232 38.1697C77.8232 39.7005 77.8503 41.0463 77.8846 42.1516C77.9266 43.4974 77.9796 44.4755 78.0099 44.9725C78.0245 45.2086 78.0341 45.3425 78.0343 45.347Z" fill="#312628"/>
<path d="M147.748 87.6567C148.858 87.6578 149.816 87.8791 150.675 88.2762C151.897 88.8436 152.939 89.7968 153.828 91.0553C154.028 91.3389 154.223 91.634 154.408 91.9483C155.917 94.506 156.86 98.0215 157.397 101.612C157.937 105.203 158.085 108.87 158.085 111.763C158.085 112.938 158.06 113.982 158.029 114.846H160.029C160.059 113.975 160.083 112.933 160.083 111.763C160.08 107.248 159.745 100.907 158.106 95.5704C157.283 92.9026 156.134 90.4709 154.456 88.6473C154.329 88.51 154.193 88.3829 154.059 88.2524C153.312 87.5228 152.47 86.9066 151.516 86.4641C150.394 85.9421 149.128 85.6573 147.748 85.6584C146.123 85.6573 144.647 85.9489 143.329 86.4868C143.226 86.5276 143.131 86.5787 143.031 86.6229C143.762 86.9985 144.434 87.4649 145.037 88.0175C145.861 87.7872 146.757 87.6567 147.748 87.6567Z" fill="#120E0F"/>
<path d="M157.89 117.417C157.842 117.966 158.25 118.451 158.801 118.497C159.35 118.544 159.833 118.135 159.881 117.586C159.881 117.582 159.891 117.46 159.906 117.246C159.643 116.998 159.29 116.843 158.898 116.843C158.514 116.843 158.165 116.994 157.903 117.237C157.901 117.265 157.899 117.296 157.896 117.317C157.892 117.385 157.89 117.417 157.89 117.417Z" fill="#120E0F"/>
<path d="M134.436 118.497C134.986 118.448 135.391 117.962 135.342 117.413C135.342 117.413 135.34 117.387 135.335 117.33C135.333 117.3 135.329 117.259 135.326 117.212C135.067 116.985 134.733 116.843 134.36 116.843C133.958 116.843 133.592 117.007 133.327 117.269C133.341 117.471 133.352 117.586 133.352 117.591C133.4 118.141 133.886 118.547 134.436 118.497Z" fill="#120E0F"/>
<path d="M136.414 100.072C136.655 99.0155 136.94 97.9795 137.277 96.9832C137.313 96.8765 137.346 96.7665 137.384 96.6598C138.128 94.5355 139.114 92.6314 140.365 91.137C140.643 90.8056 140.928 90.4879 141.232 90.1997C141.764 89.6947 142.341 89.2658 142.962 88.9015C142.622 88.6587 142.264 88.4499 141.89 88.2762C141.561 88.1242 141.212 88.0062 140.852 87.9086C140.594 88.1038 140.347 88.3103 140.107 88.5259C139.255 89.2919 138.506 90.1758 137.857 91.1449C137.613 91.5103 137.384 91.8882 137.165 92.274C136.839 92.8504 136.546 93.4541 136.272 94.0703C135.179 96.5225 134.464 99.2516 133.997 101.966C133.336 105.822 133.17 109.641 133.17 112.542C133.17 113.4 133.185 114.174 133.207 114.846H135.205C135.185 114.178 135.169 113.403 135.169 112.542C135.165 109.148 135.413 104.451 136.414 100.072Z" fill="#120E0F"/>
<path d="M173.667 114.852L167.46 175.533L176.205 170.526L184.952 175.533L173.667 114.852Z" fill="#5FA89B"/>
<path d="M167.46 175.533H184.952L176.205 170.526L167.46 175.533Z" fill="#82D4C1"/>
<path d="M175.806 169.044C175.817 169.264 176.006 169.435 176.226 169.423C176.446 169.412 176.616 169.225 176.605 169.003L174.23 121.842C174.22 121.621 174.031 121.452 173.811 121.462C173.591 121.473 173.421 121.662 173.432 121.882L175.806 169.044Z" fill="#355D59"/>
<path d="M150.015 118.502C149.465 118.455 149.058 117.972 149.104 117.421C149.104 117.421 149.106 117.39 149.112 117.321C149.114 117.296 149.117 117.262 149.119 117.228C148.819 117.498 148.626 117.885 148.626 118.32C148.626 119.134 149.287 119.794 150.099 119.794C150.914 119.794 151.573 119.134 151.573 118.32C151.573 117.904 151.399 117.529 151.121 117.261C151.106 117.468 151.096 117.586 151.096 117.59C151.049 118.14 150.566 118.548 150.015 118.502Z" fill="#5FA89B"/>
<path d="M126.558 117.417C126.606 117.966 126.2 118.452 125.651 118.5C125.102 118.55 124.616 118.144 124.567 117.595C124.566 117.589 124.556 117.471 124.541 117.262C124.263 117.53 124.088 117.904 124.088 118.32C124.088 119.134 124.749 119.794 125.562 119.794C126.376 119.794 127.035 119.134 127.035 118.32C127.035 117.884 126.842 117.497 126.542 117.228C126.545 117.269 126.549 117.306 126.551 117.334C126.555 117.391 126.558 117.417 126.558 117.417Z" fill="#5FA89B"/>
<path d="M137.013 85.8166C136.695 85.8665 136.385 85.93 136.081 86.0038C135.55 86.1331 135.033 86.2852 134.545 86.4849C134.022 86.6971 133.529 86.9524 133.057 87.2361C131.447 88.2063 130.129 89.5646 129.072 91.1431C127.022 94.2114 125.876 98.1082 125.212 101.964C124.552 105.82 124.386 109.64 124.385 112.54C124.385 113.398 124.401 114.172 124.422 114.845C124.457 115.984 124.51 116.825 124.542 117.258C124.557 117.467 124.567 117.585 124.568 117.591C124.617 118.14 125.102 118.546 125.652 118.496C126.201 118.447 126.607 117.962 126.558 117.413C126.558 117.413 126.556 117.386 126.551 117.33C126.549 117.301 126.546 117.265 126.542 117.224C126.516 116.869 126.458 116.028 126.421 114.845C126.399 114.176 126.385 113.401 126.385 112.54C126.38 108.24 126.773 101.845 128.599 96.658C129.509 94.0628 130.77 91.7865 132.448 90.1978C132.6 90.0537 132.76 89.9209 132.919 89.787C133.636 89.1856 134.421 88.692 135.298 88.3357C135.566 88.2268 135.843 88.1292 136.129 88.0452C136.428 87.9567 136.739 87.8841 137.06 87.8251C137.656 87.715 138.287 87.6548 138.963 87.6548C139.338 87.6548 139.687 87.6889 140.029 87.7377C140.313 87.7774 140.587 87.8353 140.852 87.9068C141.212 88.0044 141.561 88.1224 141.89 88.2744C142.264 88.448 142.622 88.6568 142.962 88.8997C143.988 89.6293 144.87 90.6631 145.624 91.9465C147.132 94.5042 148.077 98.0197 148.612 101.61C149.152 105.201 149.3 108.868 149.3 111.761C149.3 112.936 149.276 113.98 149.244 114.845C149.231 115.216 149.216 115.557 149.201 115.856C149.177 116.354 149.152 116.748 149.134 117.014C149.128 117.098 149.124 117.165 149.119 117.224C149.117 117.258 149.115 117.292 149.113 117.317C149.107 117.385 149.105 117.417 149.105 117.417C149.058 117.967 149.466 118.451 150.016 118.497C150.566 118.544 151.05 118.135 151.096 117.586C151.096 117.582 151.106 117.464 151.121 117.257C151.152 116.826 151.204 115.985 151.244 114.845C151.274 113.973 151.298 112.931 151.298 111.761C151.295 107.246 150.96 100.905 149.323 95.5686C148.499 92.9008 147.35 90.469 145.672 88.6455C145.469 88.4253 145.257 88.2154 145.038 88.0157C144.434 87.4631 143.762 86.9967 143.031 86.6211C142.93 86.5689 142.835 86.5099 142.732 86.4622C141.848 86.0514 140.873 85.7939 139.827 85.7008C139.543 85.6758 139.257 85.6566 138.963 85.6566C138.285 85.6566 137.639 85.7178 137.013 85.8166Z" fill="#312628"/>
<path d="M61.1162 52.646C61.8589 52.6471 62.5248 52.7776 63.1469 53.0102C63.4293 53.1158 63.7054 53.236 63.9708 53.3858C65.452 54.221 66.7177 55.7972 67.7377 57.9214C69.2713 61.0999 70.2211 65.4358 70.7612 69.8477C71.3047 74.2607 71.4524 78.7555 71.4521 82.3016C71.4521 84.0116 71.418 85.497 71.3782 86.6533H73.3777C73.4173 85.4879 73.4504 84.0048 73.4505 82.3016C73.4481 76.8094 73.1113 69.0953 71.4884 62.6443C70.672 59.417 69.5421 56.4973 67.8871 54.3016C67.0585 53.2054 66.0903 52.2908 64.9561 51.6474C64.4314 51.349 63.8699 51.1152 63.2796 50.9473C62.5961 50.7521 61.8732 50.6465 61.1162 50.6477C59.4655 50.6454 57.9594 51.0108 56.6288 51.6724C56.5516 51.7109 56.4803 51.7586 56.4043 51.7983C57.0343 52.1853 57.6106 52.6562 58.1398 53.1975C59.0359 52.8457 60.0135 52.6471 61.1162 52.646Z" fill="#120E0F"/>
<path d="M47.7876 90.3108C48.3381 90.27 48.7517 89.7911 48.7116 89.2408H48.7115C48.7115 89.2408 48.709 89.2079 48.7043 89.1364C48.7022 89.1069 48.6999 89.0694 48.6972 89.0263C48.4378 88.7982 48.1014 88.6552 47.7287 88.6552C47.3271 88.6552 46.9639 88.8175 46.6982 89.0785C46.7103 89.2737 46.718 89.3826 46.7182 89.3871C46.7584 89.9375 47.2372 90.3506 47.7876 90.3108Z" fill="#120E0F"/>
<path d="M50.7684 63.7325C51.6858 60.5302 52.9712 57.7013 54.6677 55.7393C55.1803 55.1458 55.7328 54.6409 56.3196 54.2097C55.9567 53.8863 55.5794 53.6082 55.1854 53.3858C54.9746 53.2667 54.759 53.1623 54.5375 53.0704C53.198 54.2051 52.0898 55.6633 51.1782 57.3245C49.1555 61.0193 48.019 65.7285 47.3592 70.406C46.703 75.0823 46.5378 79.7257 46.5376 83.2525C46.5376 84.5597 46.5606 85.7103 46.5901 86.6533H48.5896C48.5597 85.7172 48.5361 84.5654 48.5361 83.2525C48.5332 77.9781 48.9235 70.1359 50.7684 63.7325Z" fill="#120E0F"/>
<path d="M71.2554 89.2455C71.2171 89.7958 71.6324 90.2724 72.183 90.311C72.7335 90.3496 73.2108 89.9342 73.249 89.3828C73.2492 89.3805 73.2572 89.2647 73.2694 89.056C73.0062 88.8097 72.655 88.6554 72.2661 88.6554C71.8795 88.6554 71.5305 88.8074 71.2677 89.0514C71.2664 89.0741 71.2646 89.1025 71.2634 89.1206C71.2582 89.2046 71.2554 89.2443 71.2554 89.2455Z" fill="#120E0F"/>
<path d="M87.034 86.663L80.8271 175.533L89.5731 170.526L98.319 175.533L87.034 86.663Z" fill="#D42C4A"/>
<path d="M80.8271 175.533H98.319L89.5731 170.526L80.8271 175.533Z" fill="#F03752"/>
<path d="M89.1735 169.037C89.1806 169.258 89.3649 169.43 89.5856 169.424C89.8062 169.417 89.9795 169.232 89.9726 169.012L87.598 93.6597C87.591 93.4396 87.4066 93.266 87.1859 93.2728C86.9653 93.2807 86.7921 93.4646 86.799 93.6858L89.1735 169.037Z" fill="#861D35"/>
<path d="M63.3985 90.3081C62.848 90.2696 62.4326 89.793 62.4709 89.2426C62.4709 89.2415 62.4737 89.2018 62.4789 89.1178C62.4803 89.0962 62.4822 89.0633 62.4839 89.0372C62.1855 89.3062 61.9946 89.692 61.9946 90.1266C61.9946 90.9402 62.654 91.5995 63.4678 91.5995C64.2813 91.5995 64.9408 90.9402 64.9408 90.1266C64.9408 89.7079 64.7644 89.3323 64.4843 89.0633C64.4722 89.2664 64.4646 89.3776 64.4645 89.3799C64.4263 89.9314 63.949 90.3467 63.3985 90.3081Z" fill="#AC5661"/>
<path d="M39.9261 89.2381H39.9262C39.9665 89.7884 39.5528 90.2673 39.0024 90.3081C38.4519 90.3479 37.9732 89.9348 37.9329 89.3845C37.9327 89.3799 37.9245 89.2664 37.9123 89.0645C37.6324 89.3323 37.4565 89.7079 37.4565 90.1266C37.4565 90.9402 38.1161 91.5995 38.9296 91.5995C39.7433 91.5995 40.4027 90.9402 40.4027 90.1266C40.4027 89.692 40.2114 89.3062 39.9127 89.0361C39.915 89.0724 39.9171 89.1076 39.919 89.1337C39.9237 89.2052 39.926 89.2381 39.9261 89.2381Z" fill="#AC5661"/>
<path d="M37.9332 89.3871C37.9735 89.9375 38.4523 90.3506 39.0027 90.3108C39.5531 90.27 39.9668 89.7911 39.9265 89.2408H39.9264C39.9263 89.2408 39.924 89.2079 39.9193 89.1364C39.9175 89.1103 39.9153 89.0751 39.913 89.0388C39.8901 88.6779 39.8426 87.8428 39.8048 86.6569C39.7749 85.7208 39.7513 84.569 39.7513 83.2549C39.7484 77.9818 40.1387 70.1395 41.9837 63.735C42.9013 60.5338 44.1864 57.7049 45.883 55.7429C46.731 54.7602 47.6748 53.992 48.7329 53.4655C49.7923 52.9412 50.9695 52.6507 52.3311 52.6496C53.1428 52.6507 53.867 52.7982 54.5376 53.074C54.7591 53.1659 54.9747 53.2703 55.1855 53.3894C55.5795 53.6119 55.9568 53.8899 56.3197 54.2133C57.3212 55.1052 58.2036 56.3659 58.9525 57.925C60.4862 61.1035 61.436 65.4394 61.976 69.8513C61.996 70.0135 62.0117 70.1769 62.0308 70.3404C62.5265 74.5957 62.6672 78.8896 62.6669 82.3052C62.6669 84.0152 62.6328 85.5006 62.5931 86.6569C62.5849 86.8918 62.5769 87.1176 62.5685 87.3242C62.5439 87.9358 62.5193 88.4181 62.5009 88.746C62.4941 88.8686 62.4886 88.9616 62.4838 89.0399C62.4821 89.066 62.4802 89.0989 62.4788 89.1205C62.4736 89.2045 62.4707 89.2442 62.4707 89.2453C62.4325 89.7957 62.8478 90.2723 63.3984 90.3108C63.9489 90.3494 64.4261 89.9341 64.4644 89.3826C64.4645 89.3803 64.4721 89.2691 64.4841 89.066C64.5093 88.6428 64.5538 87.803 64.5925 86.6569C64.6321 85.4915 64.6652 84.0084 64.6654 82.3052C64.6631 76.813 64.3262 69.0989 62.7033 62.6479C62.6578 62.4686 62.6077 62.2938 62.5603 62.1168C61.7556 59.1029 60.6649 56.3784 59.1019 54.3052C58.8021 53.9092 58.4771 53.546 58.1393 53.2011C57.6102 52.6598 57.0338 52.1889 56.4038 51.8019C56.3251 51.7543 56.2515 51.6964 56.171 51.651C55.0388 51.0076 53.7417 50.649 52.3311 50.6513C50.6802 50.649 49.1741 51.0144 47.8436 51.676C45.5091 52.838 43.7426 54.8703 42.3935 57.3282C40.3708 61.0229 39.2342 65.7321 38.5745 70.4096C37.9183 75.0859 37.7532 79.7293 37.7529 83.2549C37.7529 84.5633 37.776 85.714 37.8055 86.6569C37.8413 87.8064 37.8866 88.6427 37.9126 89.0671C37.9248 89.2691 37.933 89.3826 37.9332 89.3871Z" fill="#312628"/>
<ellipse cx="122.989" cy="176.691" rx="122.989" ry="2.30966" fill="#1F1400" fill-opacity="0.3"/>
</svg>
